<svg width="29" height="29" viewBox="0 0 29 29" fill="none" xmlns="http://www.w3.org/2000/svg">
<path d="M25.9325 8.0745L21.2175 3.38332C19.3775 1.59214 16.9625 0.597046 14.375 0.597046C11.7875 0.597046 9.3725 1.59214 7.56125 3.38332L2.84625 8.0745C1.00625 9.86567 0 12.2539 0 14.8127C0 17.3716 1.00625 19.7598 2.8175 21.551L7.5325 26.2137C9.34375 28.0049 11.7875 29 14.3463 29C16.8475 29 19.2338 28.0618 21.045 26.3274L25.875 21.551C27.6863 19.7598 28.6925 17.3431 28.6925 14.8127C28.75 12.2539 27.7725 9.86567 25.9325 8.0745Z" fill="#AFB2BF"/>
<path d="M17.8537 23.0294C16.9625 23.8824 15.7262 24.4226 14.4037 24.4226C13.0237 24.4226 11.7875 23.8824 10.8675 22.9725L13.1962 20.6696C13.5125 20.9824 13.915 21.1529 14.4037 21.1529C14.8637 21.1529 15.295 20.9539 15.6112 20.6696L20.3262 16.0069C20.6425 15.6941 20.815 15.2961 20.815 14.8127C20.815 14.3578 20.6137 13.9314 20.3262 13.6186C20.01 13.3059 19.6075 13.1353 19.1187 13.1353C18.63 13.1353 18.2275 13.3343 17.9112 13.6186L13.1962 18.3098C12.305 19.1912 11.04 19.7598 9.65997 19.7598C8.27997 19.7598 7.04372 19.1912 6.12372 18.3098C5.23247 17.4284 4.65747 16.1775 4.65747 14.8127C4.65747 13.448 5.20372 12.2255 6.12372 11.3157L10.8387 6.65294C11.73 5.77157 12.995 5.20294 14.375 5.20294C15.755 5.20294 16.9912 5.74314 17.9112 6.65294L15.5825 8.95588C15.2662 8.64314 14.8637 8.47255 14.375 8.47255C13.8862 8.47255 13.4837 8.67157 13.1675 8.95588L8.45247 13.6186C8.13622 13.9314 7.96372 14.3294 7.96372 14.8127C7.96372 15.2676 8.16497 15.6941 8.45247 16.0069C8.76872 16.3196 9.17122 16.4902 9.65997 16.4902C10.12 16.4902 10.5512 16.2912 10.8675 16.0069L15.5825 11.3441C16.4737 10.4627 17.7387 9.89412 19.1187 9.89412C20.4987 9.89412 21.735 10.4343 22.655 11.3441C23.5462 12.2255 24.1212 13.4765 24.1212 14.8412C24.1212 16.2059 23.575 17.4284 22.655 18.3382L17.8537 23.0294Z" fill="#1E1F29"/>
</svg>
