<svg width="91" height="29" viewBox="0 0 91 29" fill="none" xmlns="http://www.w3.org/2000/svg">
<path d="M0 6.51799H3.68V15.459C3.68 17.769 5.405 18.895 7.025 18.895C8.659 18.895 10.371 17.739 10.371 15.428V6.51799H14.051V15.672C14.051 17.8 13.382 19.442 12.044 20.568C10.705 21.693 9.033 22.241 6.994 22.241C4.957 22.241 3.284 21.694 1.977 20.568C0.669 19.443 0 17.862 0 15.763V6.51799ZM45.866 17.63C44.752 18.622 43.483 19.108 42.036 19.108C39.396 19.108 37.626 17.604 37.426 15.275H49.316C49.316 15.275 49.396 14.523 49.396 13.817C49.396 11.627 48.696 9.80199 47.266 8.31199C45.868 6.82199 44.044 6.09199 41.823 6.09199C39.482 6.09199 37.565 6.82199 36.044 8.31199C34.554 9.80199 33.794 11.748 33.794 14.182V14.302C33.794 16.705 34.554 18.621 36.044 20.051C37.534 21.48 39.511 22.21 41.914 22.21C44.708 22.21 46.931 21.108 48.599 19.208L45.866 17.63ZM38.872 10.167C39.692 9.52799 40.697 9.19399 41.822 9.19399C42.886 9.19399 43.768 9.52799 44.529 10.198C45.255 10.808 45.647 11.557 45.681 12.418H37.52C37.638 11.528 38.088 10.778 38.873 10.168L38.872 10.167ZM82.91 24.276C81.417 27.801 79.855 29 77.46 29H75.8V25.738H77.142C77.966 25.738 78.732 25.428 79.462 23.744L80.192 22.058L73.896 6.51799H77.637L82.108 17.71L86.701 6.51799H90.441L82.91 24.276ZM28.377 0.648987V7.90599C27.171 6.82599 25.295 6.18299 23.481 6.18299C21.321 6.18299 19.497 6.94299 18.007 8.49299C16.547 10.014 15.817 11.899 15.817 14.18C15.817 16.462 16.547 18.347 18.007 19.898C19.497 21.419 21.322 22.18 23.481 22.18C25.971 22.18 27.545 21.201 28.377 20.434V21.845H32.027V0.649987L28.377 0.648987ZM27.282 17.527C26.4 18.409 25.275 18.866 23.967 18.866C22.659 18.866 21.595 18.409 20.713 17.527C19.863 16.645 19.436 15.52 19.436 14.182C19.436 12.843 19.862 11.718 20.713 10.836C21.595 9.95399 22.659 9.49799 23.967 9.49799C25.275 9.49799 26.4 9.95399 27.282 10.836C28.194 11.718 28.652 12.843 28.652 14.182C28.652 15.52 28.194 16.645 27.282 17.527ZM68.222 6.21399C65.45 6.21399 64.009 7.36399 63.022 8.47199C62.627 7.71899 61.515 6.21399 58.917 6.21399C56.721 6.21399 55.427 7.32399 54.781 8.11399V6.51999H51.163V21.847H54.781V13.027C54.781 10.959 56.059 9.46899 57.761 9.46899C59.496 9.46899 60.499 10.777 60.499 12.875V21.846H64.118V13.026C64.118 10.928 65.364 9.46799 67.158 9.46799C68.892 9.46799 69.895 10.776 69.895 12.873V21.845H73.545V12.357C73.545 8.36099 71.397 6.21499 68.222 6.21499V6.21399Z" fill="#AFB2BF"/>
</svg>
