<svg width="24.000000" height="24.000000" viewBox="0 0 24 24" fill="none" xmlns="http://www.w3.org/2000/svg" xmlns:xlink="http://www.w3.org/1999/xlink">
	<desc>
			Created with Pixso.
	</desc>
	<defs/>
	<path id="Vector" d="M24 12C24 18.62 18.62 24 12 24C5.37 24 0 18.62 0 12C0 5.37 5.37 0 12 0C18.62 0 24 5.37 24 12ZM6.12 14C6.04 13.34 6 12.67 6 12C6 11.32 6.04 10.65 6.12 10L2.19 10C2.06 10.64 2 11.31 2 12C2 12.68 2.06 13.35 2.19 14L6.12 14ZM6.5 16L2.83 16C4 18.69 6.34 20.77 9.2 21.6C7.96 19.95 7.03 18.05 6.5 16ZM8.57 16L15.42 16C14.76 18.21 13.57 20.19 12 21.79C10.42 20.19 9.23 18.21 8.57 16ZM15.85 14L8.14 14C8.04 13.34 8 12.67 8 12C8 11.32 8.04 10.65 8.14 10L15.85 10C15.95 10.65 16 11.32 16 12C16 12.67 15.95 13.34 15.85 14ZM17.87 14C17.95 13.34 18 12.67 18 12C18 11.32 17.95 10.65 17.87 10L21.8 10C21.93 10.64 22 11.31 22 12C22 12.68 21.93 13.35 21.8 14L17.87 14ZM17.49 16L21.16 16C19.99 18.69 17.65 20.77 14.79 21.6C16.03 19.95 16.96 18.05 17.49 16ZM12 2.2C10.42 3.8 9.23 5.78 8.57 8L15.42 8C14.76 5.78 13.57 3.8 12 2.2ZM14.79 2.39C16.03 4.04 16.96 5.94 17.49 8L21.16 8C19.99 5.3 17.65 3.22 14.79 2.39ZM2.83 8L6.5 8C7.03 5.94 7.96 4.04 9.2 2.39C6.34 3.22 4 5.3 2.83 8Z" fill="#000000" fill-opacity="1.000000" fill-rule="evenodd"/>
</svg>
